<?xml version="1.0" standalone="no"?>
<!DOCTYPE svg PUBLIC "-//W3C//DTD SVG 20010904//EN"
 "http://www.w3.org/TR/2001/REC-SVG-20010904/DTD/svg10.dtd">
<svg version="1.0" xmlns="http://www.w3.org/2000/svg"
 width="700.000000pt" height="700.000000pt" viewBox="0 0 700.000000 700.000000"
 preserveAspectRatio="xMidYMid meet">
<metadata>
Created by potrace 1.11, written by Peter Selinger 2001-2013
</metadata>
<g transform="translate(0.000000,700.000000) scale(0.100000,-0.100000)"
fill="#000000" stroke="none">
<path d="M4848 6954 c-2 -2 -29 -5 -60 -7 -125 -10 -175 -41 -228 -145 -35
-66 -33 -181 4 -248 16 -30 42 -59 64 -73 33 -20 37 -27 34 -56 -2 -19 1 -49
7 -67 12 -36 73 -108 91 -108 6 0 -12 -22 -39 -50 -28 -27 -55 -50 -61 -50 -5
0 -10 -4 -10 -10 0 -5 5 -10 11 -10 8 0 9 -12 4 -37 -15 -82 -16 -152 -1 -187
l15 -35 -47 -41 c-44 -38 -45 -40 -18 -34 17 4 52 15 79 25 28 10 53 16 58 14
4 -3 9 1 12 7 4 11 8 11 23 0 41 -27 72 -35 139 -36 54 -1 78 -6 106 -23 36
-23 143 -53 190 -53 22 0 26 -5 27 -31 2 -86 53 -129 151 -129 57 0 68 -4 134
-46 40 -26 78 -52 86 -58 8 -6 5 6 -8 32 -12 23 -17 42 -11 42 22 0 161 -154
223 -249 98 -146 207 -375 267 -557 29 -88 58 -166 66 -175 18 -21 50 -218 45
-284 -5 -80 0 -164 14 -217 12 -47 14 -84 9 -143 -8 -102 -9 -109 -28 -137
-14 -21 -45 -151 -67 -278 -11 -65 -66 -223 -110 -317 -60 -129 -140 -285
-165 -322 l-25 -36 28 -23 28 -23 -35 14 -35 14 -45 -62 c-68 -94 -160 -203
-210 -251 l-44 -43 27 -25 c32 -30 28 -32 -15 -10 -33 17 -23 22 -108 -54 -26
-24 -41 -30 -60 -25 -40 9 -70 32 -70 53 0 27 -39 65 -82 79 -21 7 -46 23 -55
35 l-18 23 -155 -58 c-123 -46 -159 -63 -175 -86 -11 -15 -45 -54 -75 -86
l-56 -58 -74 15 c-41 9 -79 16 -83 16 -4 0 3 -16 17 -37 l25 -36 -24 -29 c-14
-16 -25 -36 -25 -44 0 -17 -1 -17 -64 0 -41 11 -63 10 -149 -5 l-101 -17 -35
27 c-28 21 -44 26 -84 24 -65 -2 -123 -28 -147 -68 -19 -30 -25 -33 -110 -44
l-91 -13 -68 40 c-71 43 -127 56 -231 54 -48 -1 -58 -5 -83 -32 l-28 -31 -127
5 c-70 3 -147 8 -172 11 -25 3 -72 7 -105 8 -33 2 -75 10 -94 19 -24 11 -53
14 -98 11 -53 -4 -77 1 -151 28 -83 31 -122 56 -122 78 0 6 -11 13 -25 17 -14
3 -37 21 -51 40 -15 19 -44 40 -72 50 -26 10 -49 21 -52 24 -14 17 -44 19 -61
4 -21 -19 -21 -18 -36 51 -9 41 -24 48 -63 31 -9 -4 -25 3 -40 16 -21 20 -36
23 -100 23 -41 -1 -91 -4 -110 -9 -39 -9 -80 -42 -80 -64 0 -12 -9 -13 -42 -8
-60 10 -70 11 -99 3 -22 -6 -37 5 -122 91 -135 136 -143 147 -139 203 6 76
-50 149 -115 153 -17 1 -37 7 -45 13 -30 25 -188 361 -233 495 l-46 137 22 30
c43 59 23 159 -37 181 -17 7 -24 17 -25 37 0 16 -3 39 -6 53 -9 37 -8 427 1
485 4 28 9 61 11 75 21 134 102 433 125 465 12 16 81 177 77 181 -1 2 -14 8
-27 14 -24 10 -23 10 7 6 36 -6 38 -4 83 79 59 107 130 205 203 279 95 95 150
128 230 133 34 2 76 8 92 14 42 13 93 61 100 96 9 41 20 58 41 61 18 3 99 42
274 131 41 21 119 60 172 85 66 32 105 57 120 78 l22 31 19 -64 c10 -35 23
-77 27 -94 9 -29 5 71 -6 155 -2 19 -6 60 -9 90 -3 30 -9 98 -15 150 -23 219
-24 205 7 225 63 41 83 91 84 210 1 109 -18 164 -71 209 -49 40 -73 47 -187
53 -130 6 -173 -11 -241 -98 -40 -52 -47 -57 -61 -46 -9 8 -47 28 -86 46 -91
42 -166 44 -230 7 -34 -20 -57 -26 -106 -26 -57 0 -64 -2 -93 -34 -24 -24 -49
-37 -95 -49 -66 -17 -111 -40 -111 -57 0 -6 -6 -10 -14 -10 -7 0 -46 -7 -85
-16 -88 -20 -121 -46 -156 -122 -47 -103 -38 -174 25 -207 17 -9 36 -31 44
-50 8 -19 25 -39 38 -44 25 -9 58 -96 58 -152 0 -74 83 -153 167 -158 7 -1 10
-10 7 -23 -2 -13 -7 -43 -10 -68 -4 -38 -12 -51 -47 -79 -235 -192 -464 -577
-583 -981 -39 -131 -80 -311 -89 -385 -3 -27 -8 -66 -10 -85 -3 -19 -7 -66
-10 -105 -3 -38 -8 -90 -12 -115 -3 -25 -7 -54 -8 -65 -6 -48 -17 -88 -29
-108 -27 -42 -24 -90 9 -123 35 -35 51 -65 54 -100 1 -13 9 -15 37 -12 32 4
34 3 18 -9 -10 -7 -24 -13 -31 -13 -7 0 -13 -11 -13 -26 0 -31 52 -250 86
-364 31 -103 132 -349 176 -428 152 -276 272 -437 477 -642 69 -69 147 -144
172 -166 25 -21 52 -50 59 -64 43 -80 113 -90 229 -35 40 19 75 35 77 35 2 0
4 -13 4 -30 0 -33 32 -126 54 -156 14 -19 15 -18 48 6 l33 24 -28 -37 -29 -38
38 -47 c90 -111 327 -311 519 -437 142 -94 483 -290 531 -305 21 -7 58 -10 85
-7 35 4 51 2 60 -9 7 -9 49 -42 94 -74 83 -61 82 -60 88 -140 2 -25 0 -27 -55
-29 -36 -1 -78 -62 -78 -111 0 -38 35 -115 87 -192 17 -26 32 -64 36 -93 13
-89 97 -244 148 -270 53 -28 113 -12 150 38 23 31 101 232 104 267 1 16 14 43
29 61 15 17 33 44 41 60 14 25 13 28 -4 34 -11 3 -25 13 -33 22 -12 15 -11 15
9 5 52 -28 73 -11 73 57 0 55 -39 104 -91 116 -24 6 -25 9 -25 73 l1 67 73 55
c40 30 81 68 91 83 11 18 21 25 25 18 11 -17 86 -13 143 9 128 49 430 223 478
276 6 6 30 22 55 36 38 22 64 40 135 96 6 4 24 18 40 31 237 183 429 414 438
526 4 49 13 53 46 21 34 -33 90 -47 134 -35 18 5 80 46 137 92 315 252 606
650 768 1052 56 138 97 265 115 360 9 44 18 91 21 105 3 14 7 34 9 45 8 37 20
110 22 135 2 14 6 63 11 110 18 199 9 440 -26 627 -5 32 -13 72 -16 88 -3 17
-12 57 -21 90 -8 33 -17 69 -19 79 -2 11 -18 63 -36 115 -18 53 -33 98 -33
101 -2 6 -16 40 -62 154 -20 48 -42 90 -49 93 -7 2 -23 -1 -36 -7 l-23 -11 23
20 c30 27 27 37 -63 186 -110 181 -155 246 -237 342 -60 71 -89 96 -146 126
-40 21 -86 39 -102 39 -31 1 -55 18 -25 18 9 0 14 4 11 9 -3 5 5 24 17 42 22
32 26 34 74 31 55 -4 103 15 137 52 19 22 47 80 51 106 12 91 17 101 65 125
34 17 52 34 65 62 9 21 26 57 37 80 10 23 20 55 20 70 1 44 -21 105 -51 136
-28 31 -139 86 -181 90 -15 2 -42 15 -61 29 -19 14 -49 29 -67 33 -18 4 -40
17 -48 31 -19 28 -27 30 -48 9 -8 -9 -33 -15 -60 -15 -38 0 -52 6 -91 40 -75
65 -98 73 -182 67 -40 -3 -85 -12 -100 -20 -121 -63 -141 -64 -177 -10 -29 42
-102 90 -149 96 -20 3 -38 3 -39 1z m-3410 -1102 c8 -6 1 -12 -23 -19 -32 -10
-34 -10 -24 8 10 20 26 24 47 11z m3027 -4017 c22 -14 49 -31 59 -40 20 -15
20 -15 0 -29 -17 -13 -22 -13 -43 1 -14 9 -41 16 -60 15 -36 0 -145 -44 -157
-63 -3 -6 -20 -1 -39 11 -53 33 -97 27 -235 -29 -69 -27 -186 -69 -260 -92
-159 -50 -228 -54 -360 -20 -84 21 -271 80 -279 88 -3 2 17 26 44 53 27 28 45
50 39 50 -5 0 -14 -4 -19 -8 -32 -28 -125 -56 -190 -57 -43 -1 -82 -8 -102
-18 -31 -16 -33 -16 -60 7 -59 49 -111 55 -159 17 -27 -21 -27 -21 -58 -2 -17
11 -32 24 -33 28 -2 4 25 22 59 38 63 31 100 34 243 21 177 -17 267 -18 312
-5 46 13 149 17 159 6 5 -5 11 -28 13 -49 1 -4 32 15 69 42 82 60 106 62 201
21 72 -32 98 -35 206 -21 39 5 90 12 115 15 51 7 84 12 120 20 14 3 43 8 65
11 22 3 51 7 65 10 14 2 54 7 90 10 36 4 66 8 68 9 9 7 92 -19 127 -40z"/>
<path d="M3587 5794 c-24 -13 -44 -48 -39 -68 2 -5 -3 -33 -9 -62 -11 -51 -17
-58 -105 -131 -84 -70 -101 -80 -166 -96 -101 -25 -180 -31 -177 -15 2 7 -1
29 -6 48 -4 19 -9 42 -10 51 -2 25 -27 79 -36 79 -23 0 -60 -26 -64 -44 -6
-32 -16 -106 -19 -151 -2 -34 -8 -42 -34 -54 -34 -15 -49 -40 -29 -45 39 -12
47 -16 47 -25 0 -9 -66 -26 -130 -33 -23 -3 -25 1 -27 36 -2 75 -74 105 -121
51 -13 -16 -23 -39 -22 -54 3 -39 -10 -71 -29 -72 -9 0 -25 -2 -36 -5 -96 -20
-97 -19 -110 56 -8 45 -21 60 -55 60 -38 0 -51 -20 -55 -85 -2 -31 -5 -59 -8
-61 -7 -8 -50 -15 -102 -18 -27 -1 -59 -7 -70 -13 -11 -6 -23 -11 -28 -11 -8
0 -128 -15 -137 -17 -40 -9 -71 -16 -100 -20 -114 -18 -138 -80 -50 -127 69
-37 67 -32 61 -235 -1 -13 -7 -23 -15 -23 -23 0 -24 -24 -2 -45 22 -21 22 -13
17 -232 l-1 -73 -34 0 c-20 0 -36 -6 -39 -14 -6 -16 11 -36 30 -36 7 0 22 -9
33 -20 l20 -20 -27 -26 -28 -26 23 -19 c22 -17 24 -26 23 -106 -1 -193 -7
-309 -18 -328 -8 -15 -8 -26 0 -40 6 -11 10 -32 8 -47 -1 -15 3 -36 9 -47 9
-18 6 -26 -15 -48 -14 -15 -25 -33 -25 -39 0 -14 75 -48 88 -40 6 3 23 -5 37
-18 l27 -25 -32 -16 c-17 -9 -39 -14 -49 -10 -9 3 -25 -1 -36 -8 -18 -14 -19
-24 -11 -109 1 -21 -1 -38 -6 -38 -11 0 -10 -37 2 -45 5 -3 7 -12 4 -20 -3 -8
-2 -20 2 -27 13 -20 15 -35 18 -133 4 -111 2 -102 26 -108 19 -5 21 -10 24
-86 1 -30 17 -36 48 -20 13 7 31 13 40 14 10 1 21 5 25 8 3 4 15 0 25 -10 16
-14 20 -15 36 -1 24 21 69 30 92 18 13 -7 22 -6 32 3 7 8 23 19 36 26 12 6 22
19 23 29 0 9 5 4 11 -13 13 -36 38 -66 49 -59 5 2 25 -6 46 -19 21 -12 67 -36
101 -51 l64 -28 20 22 c19 20 21 20 38 5 10 -9 36 -23 57 -30 23 -8 43 -23 51
-39 16 -31 28 -33 42 -6 6 11 15 18 20 15 5 -3 12 -1 15 5 4 7 16 1 32 -16 24
-26 24 -26 46 -7 26 23 61 24 63 3 1 -8 2 -23 3 -33 1 -12 7 -17 19 -15 17 3
38 -16 110 -95 18 -21 40 -37 48 -37 18 0 16 12 -10 73 l-16 37 37 1 c225 8
272 13 314 34 25 13 31 13 59 -3 29 -16 32 -16 44 1 12 16 18 16 95 2 88 -17
102 -15 94 14 -3 14 4 22 34 34 21 8 39 14 40 13 1 -1 4 -14 7 -30 3 -15 10
-33 15 -40 6 -7 8 -16 4 -19 -3 -4 -4 -7 -2 -7 2 0 22 -7 44 -14 28 -10 45
-11 59 -4 10 5 53 10 95 10 42 0 82 5 89 11 9 7 16 7 24 -1 7 -7 22 -12 34
-12 11 0 41 -16 65 -35 68 -54 94 -43 59 25 l-21 41 28 -3 c26 -3 28 0 29 32
0 50 15 120 25 120 4 0 9 -12 11 -27 4 -40 31 -40 53 0 21 40 56 55 113 50 32
-3 44 0 48 11 8 20 21 20 58 1 27 -15 124 -33 154 -29 6 1 17 2 22 3 6 0 10
10 10 21 0 16 7 20 30 20 21 0 38 9 57 30 14 17 31 29 37 28 20 -3 91 22 111
40 45 38 58 61 46 76 -6 7 -17 33 -24 57 -11 37 -10 51 2 86 13 35 13 47 2 78
-16 45 -6 135 15 135 9 0 14 12 14 35 0 19 -4 35 -8 35 -5 0 -7 129 -6 286 2
246 5 288 19 304 9 9 15 21 13 26 -1 5 1 19 6 31 5 15 1 38 -12 65 -13 30 -19
69 -20 128 -1 86 -4 636 -3 656 1 6 13 9 30 6 41 -6 48 9 54 108 l2 44 -70 12
c-38 6 -88 14 -110 17 -22 4 -65 11 -95 16 -57 11 -87 16 -154 26 -72 12 -79
14 -92 34 -14 19 -45 19 -70 0 -6 -5 -13 -7 -15 -5 -2 2 -29 7 -59 10 -30 4
-82 13 -115 20 -33 8 -83 17 -111 21 -50 6 -51 7 -52 41 -1 19 -4 40 -8 46 -4
5 -8 27 -11 47 -21 173 -45 226 -102 219 -24 -3 -26 -7 -26 -53 0 -27 -4 -74
-9 -103 l-8 -54 -52 7 c-28 4 -67 9 -86 12 -54 7 -113 39 -177 96 -32 29 -74
64 -93 80 -31 25 -33 29 -17 38 23 13 22 24 -5 49 -13 12 -24 33 -25 47 -4 52
-51 80 -96 57z m-630 -776 c-3 -8 -6 -5 -6 6 -1 11 2 17 5 13 3 -3 4 -12 1
-19z m-3 -33 c-4 -11 1 -15 17 -16 13 0 139 -2 279 -4 140 -2 271 -6 290 -8
19 -3 58 -9 85 -12 104 -13 122 -17 193 -36 90 -24 148 -50 235 -107 101 -66
138 -125 139 -223 2 -185 -138 -304 -463 -394 -52 -15 -98 -28 -102 -29 -5 -1
28 -30 73 -65 45 -35 170 -150 278 -256 108 -106 222 -214 252 -240 114 -98
230 -165 360 -209 l72 -24 -199 -2 c-109 -1 -226 -2 -259 -2 -103 -1 -161 36
-393 251 -57 53 -116 107 -131 121 -281 260 -387 348 -434 361 -64 17 -204 18
-219 1 -9 -11 -13 -89 -14 -281 -3 -299 2 -323 69 -374 32 -25 130 -57 172
-57 11 0 17 -3 13 -6 -9 -9 -897 -10 -897 -1 0 4 12 7 28 8 150 4 235 52 261
146 14 51 15 1234 1 1284 -11 40 -32 66 -70 90 -37 23 -100 46 -145 53 -21 4
-41 8 -43 11 -2 2 112 4 253 4 222 -1 260 2 273 15 20 20 33 21 26 1z m1026
-1803 c0 -12 -22 -32 -35 -32 -9 0 -13 38 -6 58 2 6 41 -19 41 -26z m80 -422
c13 -9 13 -11 0 -20 -8 -5 -21 -8 -28 -5 -8 3 -22 5 -33 5 -10 0 -19 7 -19 15
0 17 56 21 80 5z"/>
<path d="M3070 4880 c-15 -3 -32 -19 -42 -39 -14 -29 -17 -71 -18 -305 0 -253
1 -273 20 -303 10 -18 31 -35 46 -39 27 -7 262 1 304 11 14 3 37 7 51 10 77
14 220 82 279 132 58 50 91 121 93 197 2 154 -65 235 -231 280 -66 18 -77 21
-156 36 -104 21 -296 32 -346 20z"/>
</g>
</svg>
